<svg xmlns="http://www.w3.org/2000/svg" viewBox="0 0 128 128" width="128" height="128">
  <defs>
    <radialGradient id="bg" cx="50%" cy="50%" r="50%">
      <stop offset="0%" stop-color="#0f1729"/>
      <stop offset="100%" stop-color="#060a12"/>
    </radialGradient>
  </defs>
  <rect width="128" height="128" rx="24" fill="url(#bg)"/>
  <!-- stars -->
  <circle cx="12" cy="18" r="1" fill="#fff" opacity=".9"/>
  <circle cx="45" cy="8" r="0.7" fill="#fff" opacity=".5"/>
  <circle cx="78" cy="14" r="1.2" fill="#fff" opacity=".8"/>
  <circle cx="110" cy="22" r="0.8" fill="#fff" opacity=".6"/>
  <circle cx="25" cy="42" r="0.6" fill="#fff" opacity=".4"/>
  <circle cx="98" cy="38" r="1" fill="#fff" opacity=".7"/>
  <circle cx="60" cy="30" r="0.5" fill="#fff" opacity=".3"/>
  <circle cx="8" cy="65" r="0.9" fill="#fff" opacity=".6"/>
  <circle cx="35" cy="72" r="0.7" fill="#fff" opacity=".5"/>
  <circle cx="118" cy="58" r="1.1" fill="#fff" opacity=".8"/>
  <circle cx="88" cy="75" r="0.6" fill="#fff" opacity=".4"/>
  <circle cx="15" cy="98" r="1" fill="#fff" opacity=".7"/>
  <circle cx="52" cy="105" r="0.8" fill="#fff" opacity=".5"/>
  <circle cx="105" cy="95" r="0.7" fill="#fff" opacity=".6"/>
  <circle cx="70" cy="118" r="0.9" fill="#fff" opacity=".4"/>
  <circle cx="22" cy="115" r="0.5" fill="#fff" opacity=".3"/>
  <circle cx="115" cy="112" r="1" fill="#fff" opacity=".7"/>
  <circle cx="42" cy="55" r="0.6" fill="#fff" opacity=".35"/>
  <circle cx="92" cy="52" r="0.5" fill="#fff" opacity=".3"/>
  <circle cx="65" cy="85" r="0.7" fill="#fff" opacity=".45"/>
  <!-- bright accent stars -->
  <circle cx="64" cy="58" r="1.8" fill="#4da6ff" opacity=".9"/>
  <circle cx="30" cy="88" r="1.4" fill="#4da6ff" opacity=".6"/>
  <circle cx="100" cy="70" r="1.5" fill="#4da6ff" opacity=".7"/>
  <!-- twinkle crosses on brightest star -->
  <line x1="60" y1="58" x2="68" y2="58" stroke="#fff" stroke-width="0.5" opacity=".6"/>
  <line x1="64" y1="54" x2="64" y2="62" stroke="#fff" stroke-width="0.5" opacity=".6"/>
</svg>
